<?xml version="1.0" standalone="no"?>
<!DOCTYPE svg PUBLIC "-//W3C//DTD SVG 20010904//EN"
 "http://www.w3.org/TR/2001/REC-SVG-20010904/DTD/svg10.dtd">
<svg version="1.0" xmlns="http://www.w3.org/2000/svg"
 width="301.000000pt" height="301.000000pt" viewBox="0 0 301.000000 301.000000"
 preserveAspectRatio="xMidYMid meet">

<g transform="translate(0.000000,301.000000) scale(0.100000,-0.100000)"
fill="#92400e" stroke="none">
<path d="M1369 3000 c-592 -56 -1098 -456 -1284 -1013 -60 -181 -70 -249 -70
-477 0 -228 10 -296 70 -476 210 -631 820 -1051 1480 -1020 704 33 1270 523
1412 1221 27 135 25 433 -5 572 -61 282 -190 527 -387 731 -193 202 -408 334
-661 407 -172 50 -386 71 -555 55z m411 -84 c714 -147 1216 -813 1150 -1527
-25 -272 -122 -528 -280 -737 -75 -100 -245 -263 -338 -325 -219 -146 -514
-247 -724 -247 -50 0 -62 4 -90 29 l-33 29 -3 284 -3 283 53 19 c46 16 83 49
310 274 245 242 259 255 282 244 l25 -11 3 -275 3 -276 27 -27 c38 -37 87 -37
128 2 61 59 61 56 58 645 l-3 535 -38 80 c-36 76 -52 94 -350 392 -278 278
-319 315 -377 342 -83 39 -148 51 -275 51 -165 0 -187 -10 -322 -148 -63 -64
-123 -135 -134 -157 -17 -37 -19 -67 -19 -344 l0 -303 -70 -72 c-106 -109
-104 -99 -101 -451 2 -323 3 -326 57 -362 70 -45 213 12 160 65 -15 15 -18 15
-45 -1 -38 -22 -66 -22 -91 3 -19 19 -20 33 -20 202 l0 182 293 -291 c247
-246 299 -293 337 -305 l45 -15 5 -289 c4 -209 9 -295 18 -311 12 -22 11 -23
-20 -23 -125 0 -349 60 -504 134 -421 202 -709 574 -801 1033 -27 134 -24 405
5 540 130 601 589 1040 1188 1138 111 18 386 13 494 -9z m-482 -305 c48 -25
808 -787 821 -824 14 -36 14 -98 1 -133 -6 -15 -52 -70 -102 -121 l-92 -93
-281 279 c-270 269 -315 307 -380 321 l-30 6 -5 139 -5 140 -25 0 -25 0 -3
-142 -3 -143 -37 -15 c-21 -9 -82 -61 -139 -118 l-103 -102 0 263 c0 240 2
266 19 300 20 37 209 230 246 250 31 18 102 14 143 -7z m-15 -645 c18 -8 158
-140 312 -295 l280 -281 -117 -117 c-144 -145 -157 -171 -158 -304 l0 -96 -45
-42 c-69 -64 -120 -76 -193 -46 -50 21 -595 564 -622 621 -24 48 -25 95 -5
138 18 38 378 399 420 420 37 20 86 20 128 2z"/>
<path d="M1263 1783 c-7 -3 -13 -16 -13 -29 0 -19 -5 -24 -25 -24 -18 0 -25
-5 -25 -20 0 -15 7 -20 25 -20 20 0 25 -5 25 -24 0 -14 5 -28 10 -31 15 -9 40
14 40 36 0 14 7 19 26 19 33 0 30 33 -4 38 -13 2 -22 10 -22 21 0 22 -20 40
-37 34z"/>
<path d="M1000 1506 c0 -21 -5 -26 -25 -26 -18 0 -25 -5 -25 -20 0 -15 7 -20
25 -20 20 0 25 -5 25 -24 0 -14 5 -28 10 -31 15 -9 40 14 40 36 0 11 9 19 23
21 28 4 29 32 0 36 -14 2 -23 11 -25 25 -2 14 -11 23 -25 25 -19 3 -23 -1 -23
-22z"/>
<path d="M1591 1437 c-6 -6 -11 -19 -11 -28 0 -11 -9 -19 -22 -21 -13 -2 -23
-10 -23 -18 0 -8 10 -16 23 -18 13 -2 22 -10 22 -21 0 -22 25 -45 40 -36 5 3
10 17 10 31 0 19 5 24 25 24 18 0 25 5 25 20 0 15 -7 20 -25 20 -20 0 -25 5
-25 24 0 27 -22 40 -39 23z"/>
<path d="M1337 1184 c-4 -4 -7 -15 -7 -25 0 -11 -9 -19 -22 -21 -34 -5 -37
-38 -4 -38 19 0 26 -5 26 -19 0 -22 25 -45 40 -36 5 3 10 17 10 31 0 19 5 24
25 24 18 0 25 5 25 20 0 15 -7 20 -24 20 -18 0 -25 6 -28 22 -3 23 -27 35 -41
22z"/>
</g>
</svg>
